<?xml version="1.0" encoding="UTF-8"?>
<svg version="1.1" xmlns="http://www.w3.org/2000/svg" width="2633" height="3242">
<path d="M0 0 C2.40027707 0.00426441 4.80055308 0.00717742 7.20083237 0.00988388 C95.72554423 0.1228425 182.49350704 6.9548526 439.22613144 74.12917709 C440.20785324 74.5333284 440.20785324 74.5333284 441.20940781 74.94564438 C479.13632777 90.60355803 516.03419492 109.04765283 551.22613144 130.12917709 C552.21419785 130.71876205 553.20226425 131.30834702 554.22027206 131.91579819 C567.13292351 139.63513472 579.8289132 147.60541987 592.22613144 156.12917709 C593.02083847 156.67541733 593.8155455 157.22165756 594.63433456 157.78445053 C612.0737861 169.81094878 629.18252034 182.1902321 645.50249863 195.70534897 C647.93843209 197.71758182 650.39655619 199.70225459 652.85113144 201.69167709 C662.51744272 209.61892188 671.969547 217.77287504 681.13531113 226.27395248 C683.04761693 228.04536639 684.97027808 229.80188728 686.90410995 231.55007553 C694.53448528 238.45577081 701.87277892 245.62104848 709.13702011 252.90969467 C711.05035338 254.82843214 712.96903648 256.74170464 714.88824081 258.65456772 C720.8822487 264.64532768 726.74350815 270.66095778 732.22613144 277.12917709 C733.8458096 278.9048793 735.47024862 280.67626017 737.10113144 282.44167709 C742.02231491 287.8438785 746.64114797 293.44147608 751.22613144 299.12917709 C752.23547238 300.35922725 753.24595742 301.5883392 754.25738144 302.81667709 C770.55686761 322.65312229 785.52636342 343.41633721 799.22613144 365.12917709 C799.99376816 366.34347397 799.99376816 366.34347397 800.77691269 367.58230209 C846.72505971 440.47327985 881.64296811 519.81266337 907.03863144 646.94167709 C907.1381813 647.65019821 907.23773117 648.35871933 907.3402977 649.08871078 C912.42804697 685.79368583 911.22613144 720.3535403 911.22613144 758.12917709 C715.86613144 758.12917709 520.50613144 758.12917709 319.22613144 758.12917709 C316.97792153 749.13633744 316.97792153 749.13633744 316.45171738 745.36330795 C316.33084763 744.51639893 316.20997787 743.6694899 316.0854454 742.79691696 C315.96171555 741.90496124 315.83798569 741.01300552 315.71050644 740.09402084 C315.43007893 738.14126583 315.14879779 736.18863326 314.86675644 734.23611069 C314.72173691 733.22731857 314.57671738 732.21852646 314.42730331 731.17916489 C311.96700762 714.20638636 309.49621698 697.49524982 304.22613144 681.12917709 C303.84835556 679.90980453 303.84835556 679.90980453 303.46294785 678.66579819 C290.91929064 638.55280046 267.78725003 602.58587962 239.56206894 571.71120834 C238.29175186 570.30706187 237.02725094 568.89714984 235.7949791 567.45949936 C221.99927401 551.38653256 206.66886253 536.18452164 189.22613144 524.12917709 C188.02541201 523.2713821 186.82488748 522.41331421 185.62456894 521.55495834 C139.3683236 489.07824496 82.75142259 476.08565285 27.23003769 471.50808334 C26.45019264 471.44355846 25.6703476 471.37903358 24.86687088 471.31255341 C6.98340984 469.87129565 -10.86565838 469.66693298 -28.7987709 469.73806381 C-33.18503929 469.75531601 -37.57076789 469.74486464 -41.95701885 469.72774696 C-61.07966323 469.66437808 -79.85498963 469.97949321 -98.77386856 473.12917709 C-99.47006302 473.24259445 -100.16625748 473.35601181 -100.88354874 473.47286606 C-104.69112538 474.11044263 -108.45113125 474.88211679 -112.21136856 475.75417709 C-113.87546768 476.13594101 -113.87546768 476.13594101 -115.57318497 476.52541733 C-163.04081566 487.88074806 -206.3620171 511.75649124 -241.77386856 545.12917709 C-242.50605606 545.81882553 -243.23824356 546.50847397 -243.99261856 547.21902084 C-257.93952145 560.75083734 -269.2478217 577.26310434 -278.77386856 594.12917709 C-279.58525284 595.54384262 -279.58525284 595.54384262 -280.41302872 596.98708725 C-288.56877281 611.2769138 -295.54711415 625.19223425 -299.77386856 641.12917709 C-300.00896133 642.00992905 -300.24405411 642.890681 -300.4862709 643.79812241 C-305.52706209 663.18685418 -308.19653789 683.11023611 -308.77386856 703.12917709 C-308.79578262 703.80093979 -308.81769669 704.47270248 -308.84027481 705.16482162 C-310.82642704 775.06082888 -287.68475559 836.72831407 -239.99261856 887.75027084 C-230.10958992 898.18621829 -220.12969772 908.29686553 -208.77386856 917.12917709 C-207.76582169 917.97738022 -206.75777481 918.82558334 -205.71918106 919.69948959 C-187.69124576 934.80909206 -167.16701202 947.48538998 -146.77386856 959.12917709 C-145.97932266 959.58357162 -145.18477676 960.03796616 -144.36615372 960.50613022 C-116.13236075 976.52386555 -86.75228127 990.37615455 -56.9940834 1003.29030991 C-53.00968524 1005.02160886 -49.04126943 1006.78731089 -45.07464981 1008.55886459 C-10.74283116 1023.83966527 24.77607636 1035.38919052 60.5215416 1046.86617661 C75.31649114 1051.6200701 89.8773546 1056.69958791 104.28863144 1062.50417709 C121.99164898 1069.62239083 140.00907658 1075.47770714 158.22613144 1081.12917709 C159.17721786 1081.42459396 160.12830429 1081.72001083 161.10821152 1082.02437973 C174.05406141 1086.04334174 187.0113879 1090.02451891 199.97361374 1093.99030685 C211.49768364 1097.51637808 223.01589803 1101.06139158 234.53371811 1104.60781479 C238.73411347 1105.90102882 242.9347129 1107.19357869 247.13540268 1108.48583603 C249.12616467 1109.09840462 251.11682761 1109.71129523 253.10738754 1110.32452011 C258.44987433 1111.96994102 263.79434012 1113.60858447 269.14141464 1115.23904037 C270.29745193 1115.59244492 271.45348923 1115.94584946 272.64455795 1116.30996323 C274.84938335 1116.98388112 277.05476647 1117.65597837 279.26082993 1118.32583237 C299.71433644 1124.58602569 319.28251474 1133.03074803 338.96490097 1141.33718491 C349.59506814 1145.8165129 360.25614003 1150.15571552 371.03863144 1154.25417709 C407.14057223 1168.02499577 442.12541869 1183.96261218 476.60784531 1201.36315536 C489.58423061 1207.90620698 502.67988367 1214.08444534 515.94195175 1220.02370834 C526.4209247 1224.72145024 536.7147427 1229.72895968 546.93755722 1234.96072006 C550.35592058 1236.70600351 553.79114638 1238.41692082 557.22613144 1240.12917709 C557.85390488 1240.44403061 558.48167831 1240.75888412 559.12847519 1241.08327866 C562.84049855 1242.94490328 566.56211025 1244.78515428 570.29253769 1246.60964584 C582.93404897 1252.81941118 595.23017024 1259.49986841 607.43413925 1266.52810287 C610.11443904 1268.06512683 612.80457244 1269.58294469 615.49956894 1271.09402084 C646.67890337 1288.62375515 676.83937015 1308.35045473 705.22613144 1330.12917709 C705.89757187 1330.64206284 706.5690123 1331.15494858 707.26079941 1331.68337631 C716.40658741 1338.68054024 725.36290445 1345.82337373 734.04644394 1353.38698959 C736.98381849 1355.94053298 740.00003906 1358.38411976 743.03863144 1360.81667709 C747.25816881 1364.23809083 751.11015953 1367.86757922 754.86285019 1371.79323959 C756.85237998 1373.75975003 758.87803298 1375.57894227 760.99566269 1377.40261459 C765.99791996 1381.74042328 770.59263251 1386.44424264 775.22613144 1391.16823959 C778.41438454 1394.39385503 781.62319776 1397.5227082 785.06597519 1400.47683334 C790.22241227 1404.92056141 794.98790527 1409.74539107 799.78863144 1414.56667709 C800.69548691 1415.46966537 801.60234238 1416.37265366 802.53667831 1417.30300522 C807.09760452 1421.87054625 811.52758055 1426.48941574 815.73077011 1431.38869858 C817.79663114 1433.79319217 819.95019877 1436.11331058 822.10113144 1438.44167709 C827.02108489 1443.84397892 831.67158146 1449.41694886 836.22613144 1455.12917709 C836.64475449 1455.65350327 837.06337753 1456.17782944 837.49468613 1456.71804428 C850.01207425 1472.42741277 861.8576596 1488.57004184 873.22613144 1505.12917709 C873.86598984 1506.05762436 874.50584824 1506.98607162 875.16509628 1507.94265366 C925.37753329 1581.06226955 951.65660563 1664.08489621 976.42925644 1860.07839584 C976.43627884 1861.65487318 976.44336566 1863.23135022 976.45051193 1864.807827 C976.46988939 1869.81078126 976.47494518 1874.81368908 976.47613144 1879.81667709 C976.4765733 1880.66864292 976.47701515 1881.52060875 976.4774704 1882.39839172 C976.48408011 1906.69451191 976.44927528 1930.88369592 973.48260117 1955.03475571 C973.21021354 1957.25916819 972.94961074 1959.48478224 972.68999863 1961.71072006 C970.64397464 1979.06265904 967.9420546 1996.19773507 964.51082993 2013.32760239 C962.4441052 2023.72254696 961.43329339 2033.55800314 962.22613144 2044.12917709 C962.84842636 2044.45490707 963.47072128 2044.78063705 964.11187363 2045.11623764 C988.57391938 2057.98237602 1011.48820161 2072.44437647 1032.38482285 2090.57497787 C1033.79648134 2091.76652096 1035.23014917 2092.93203062 1036.67290878 2094.08572006 C1043.65641521 2099.67475833 1050.0553693 2105.65528615 1056.35113144 2112.00417709 C1057.73751816 2113.37896225 1057.73751816 2113.37896225 1059.15191269 2114.78152084 C1065.27585229 2120.9227353 1070.81182542 2127.36129457 1076.22613144 2134.12917709 C1077.14964667 2135.21888913 1078.07926892 2136.30350526 1079.01910019 2137.37917709 C1108.39983147 2171.12148512 1130.51689075 2210.9879307 1145.22613144 2253.12917709 C1145.44803146 2253.76375839 1145.66993149 2254.39833969 1145.89855576 2255.05215073 C1152.90561973 2275.15137668 1158.75005765 2295.07961912 1162.22613144 2316.12917709 C1162.48861679 2317.64003891 1162.48861679 2317.64003891 1162.75640488 2319.18142319 C1168.57677536 2354.10940886 1167.31005774 2392.31096876 1161.22613144 2427.12917709 C1161.0118248 2428.36667709 1160.79751816 2429.60417709 1160.57671738 2430.87917709 C1157.39460597 2448.66565136 1152.82208638 2465.9574472 1147.22613144 2483.12917709 C1146.68545029 2484.79617661 1146.68545029 2484.79617661 1146.13384628 2486.49685287 C1134.5951827 2521.547502 1118.65450441 2556.01810428 1097.22613144 2586.12917709 C1096.66780624 2586.91663315 1096.10948105 2587.7040892 1095.53423691 2588.51540756 C1085.66351113 2602.35866657 1074.94318684 2615.17199455 1063.45269394 2627.68386459 C1061.52413224 2629.80189902 1059.64893628 2631.95147427 1057.78863144 2634.12917709 C1050.00823025 2643.03928525 1041.4840501 2650.79087936 1032.22613144 2658.12917709 C1031.12794916 2659.03843197 1030.03167932 2659.95000031 1028.93706894 2660.86355209 C975.73706455 2704.9112647 906.2511628 2733.57903491 838.22613144 2743.12917709 C837.30719101 2743.26195053 836.38825058 2743.39472397 835.44146347 2743.53152084 C745.45611183 2755.92648512 648.17972945 2727.63586097 576.22613144 2673.12917709 C568.10951634 2666.8446246 560.20051629 2660.31108664 552.65191269 2653.3515892 C551.15809762 2651.98301044 549.65418507 2650.62524489 548.13409042 2649.28591537 C540.71488027 2642.74372084 533.71346075 2635.8026436 526.72149277 2628.80984116 C524.6691972 2626.75973691 522.60901229 2624.71778959 520.54839706 2622.67605209 C511.43969392 2613.60655023 502.66354356 2604.51240797 495.90581894 2593.49245834 C493.101733 2591.21658394 490.74883191 2591.81968021 487.22613144 2592.12917709 C483.78567742 2592.71698392 480.42119422 2593.52196606 477.03863144 2594.37917709 C475.49187729 2594.76855453 475.49187729 2594.76855453 473.91387558 2595.16579819 C464.52350008 2597.62402599 455.35226843 2600.64316024 446.16363144 2603.75417709 C399.02534285 2619.70504053 351.33306628 2632.90914754 302.51641464 2642.67074203 C300.38309326 2643.0977588 298.25082449 2643.52968084 296.11870956 2643.96267319 C223.43370803 2658.55319978 148.59435734 2665.02032831 74.53863144 2666.69167709 C73.62871445 2666.71252365 72.71879745 2666.73337021 71.78130722 2666.75484848 C56.59320571 2667.09801698 41.41820947 2667.33380427 26.22613144 2667.12917709 C25.52514328 2667.12057663 24.82415512 2667.11197617 24.1019249 2667.10311508 C-39.09983619 2666.31422677 -102.28240294 2661.71538503 -164.77386856 2652.12917709 C-165.64487198 2651.99636337 -166.5158754 2651.86354965 -167.41327286 2651.72671127 C-235.56880545 2641.2862269 -304.17680301 2627.53842667 -369.77386856 2606.12917709 C-371.20209051 2605.66644704 -372.63031317 2605.20371919 -374.05853653 2604.7409935 C-431.77795842 2585.960769 -488.50990645 2561.05820538 -540.77386856 2530.12917709 C-542.46883963 2529.14060985 -544.16382245 2528.15206262 -545.85910416 2527.16402817 C-560.28060272 2518.74159413 -574.38478318 2509.90396222 -588.27386856 2500.62917709 C-589.29151291 2499.9500174 -589.29151291 2499.9500174 -590.32971573 2499.2571373 C-617.995067 2480.75192647 -644.59914797 2460.78472927 -669.94256973 2439.2085228 C-673.30145715 2436.35408913 -676.70601021 2433.56994215 -680.14886856 2430.81667709 C-686.13842612 2425.94961348 -691.70652109 2420.66007326 -697.31683731 2415.36745834 C-700.50110885 2412.36832883 -703.76992692 2409.48493725 -707.08636856 2406.63308334 C-709.4734679 2404.50569157 -711.69030622 2402.22419197 -713.92840958 2399.94216537 C-715.58208537 2398.31758588 -717.27563537 2396.83196696 -719.05121231 2395.34402084 C-725.26070185 2389.94303627 -731.00321023 2384.04853636 -736.81024551 2378.22317123 C-738.83151124 2376.19654729 -740.8580643 2374.17532162 -742.88519669 2372.15456772 C-749.058543 2365.98473817 -755.17319178 2359.83198316 -760.77386856 2353.12917709 C-761.72275558 2352.03400937 -762.67325201 2350.94023382 -763.62543106 2349.84792709 C-790.05381895 2319.24738021 -813.72164802 2286.2720806 -833.77386856 2251.12917709 C-834.17895645 2250.4250267 -834.58404434 2249.72087631 -835.00140762 2248.99538803 C-838.00840735 2243.75062107 -840.91246198 2238.45460069 -843.77386856 2233.12917709 C-844.28643204 2232.17784897 -844.79899551 2231.22652084 -845.32709122 2230.24636459 C-874.22219783 2176.32930708 -896.03387009 2118.53149615 -911.21710587 2059.30013657 C-911.77949418 2057.10724139 -912.3472742 2054.91578868 -912.91547012 2052.72439194 C-926.62462028 1999.61743172 -935.4088968 1945.59830662 -941.54535294 1891.1326561 C-941.94722702 1887.60928084 -942.37668964 1884.08911879 -942.80902481 1880.56936264 C-944.18985469 1866.86438294 -943.77386856 1854.26264006 -943.77386856 1840.12917709 C-749.40386856 1840.12917709 -555.03386856 1840.12917709 -354.77386856 1840.12917709 C-350.48386856 1866.52917709 -346.19386856 1892.92917709 -341.77386856 1920.12917709 C-336.55590921 1938.49786923 -336.55590921 1938.49786923 -330.52386856 1956.56667709 C-329.9688063 1958.08962387 -329.9688063 1958.08962387 -329.40253067 1959.64333725 C-313.56219656 2002.31485621 -290.51434631 2040.16910188 -259.89105606 2073.78933334 C-258.48371331 2075.34468077 -257.09283169 2076.91508846 -255.71918106 2078.50027084 C-252.06555029 2082.71545187 -248.34424743 2086.53590409 -244.08246231 2090.13308334 C-241.75998719 2092.14117943 -239.52439024 2094.2280758 -237.29144669 2096.3347435 C-230.12538182 2103.07263386 -222.64253481 2109.23165148 -214.77386856 2115.12917709 C-213.75099747 2115.89681381 -213.75099747 2115.89681381 -212.70746231 2116.67995834 C-142.19198992 2169.27861379 -56.67752862 2196.70344659 31.22613144 2198.12917709 C32.69662949 2198.15987289 32.69662949 2198.15987289 34.19683456 2198.19118881 C104.50557454 2199.50162589 175.50923716 2186.33235334 239.22613144 2156.12917709 C240.13846542 2155.69718002 241.05079941 2155.26518295 241.99077988 2154.82009506 C265.38353244 2143.64054526 286.40628769 2130.0654601 305.22613144 2112.12917709 C306.59438947 2110.95461076 307.96875228 2109.78709072 309.35113144 2108.62917709 C349.44574156 2073.56701804 374.43309158 2014.71722724 378.03481674 1962.61584091 C378.60367733 1952.24849502 378.56062216 1941.85859127 378.54180527 1931.47854233 C378.53717571 1928.70917129 378.54411163 1925.94023972 378.56231308 1923.17092514 C379.02941679 1851.3374989 355.19130534 1788.65311854 307.22613144 1735.12917709 C306.78237167 1734.62902084 306.33861191 1734.12886459 305.88140488 1733.61355209 C295.66020417 1722.11375559 284.9830087 1710.76106858 272.88238144 1701.22292709 C270.04290983 1698.98475535 267.29408374 1696.65733012 264.53863144 1694.31667709 C239.08552244 1673.1111986 211.03587771 1655.37173287 182.22613144 1639.12917709 C181.42787949 1638.67784409 180.62962753 1638.22651108 179.80718613 1637.76150131 C139.82910805 1615.26888069 97.9856163 1596.63486206 55.22613144 1580.12917709 C54.47708542 1579.83974228 53.7280394 1579.55030746 52.95629501 1579.2521019 C25.74652459 1568.75421595 -1.75195071 1559.09852989 -29.27655411 1549.46384811 C-38.85523169 1546.1076423 -48.41612189 1542.70425335 -57.96136856 1539.25417709 C-58.68058487 1538.99451157 -59.39980118 1538.73484604 -60.14081192 1538.46731186 C-67.70582757 1535.7332467 -75.25438264 1532.96023484 -82.77777481 1530.11355209 C-137.03545908 1509.60802903 -192.4826177 1492.15967736 -247.80145645 1474.75710678 C-298.56680758 1458.78448697 -348.1821903 1440.36495882 -397.01703262 1419.18777084 C-401.81155963 1417.10955917 -406.6164725 1415.05607283 -411.42230606 1413.00417709 C-448.88462477 1396.98455487 -485.99728666 1380.00154273 -521.2807045 1359.55935287 C-524.36020529 1357.79283156 -527.47062192 1356.08762574 -530.58710098 1354.38747787 C-562.71146946 1336.82075276 -593.75073546 1316.14103101 -623.14886856 1294.31667709 C-623.93503555 1293.73466537 -624.72120255 1293.15265366 -625.53119278 1292.55300522 C-647.9653009 1275.87410351 -669.74009273 1258.24603231 -690.34418106 1239.34402084 C-692.37902271 1237.48910892 -694.43708103 1235.67488911 -696.52386856 1233.87917709 C-706.27873035 1225.3708798 -715.60673661 1216.38810573 -724.77386856 1207.25417709 C-725.46730362 1206.56533432 -726.16073868 1205.87649155 -726.87518692 1205.16677475 C-730.81113796 1201.2189527 -734.56074419 1197.16337617 -738.20160294 1192.94216537 C-740.25306366 1190.57661455 -742.38859918 1188.29406943 -744.52386856 1186.00417709 C-749.27262143 1180.79633029 -753.62620048 1175.35218107 -757.93402481 1169.77761459 C-759.80483655 1167.35853942 -761.70615404 1164.97065235 -763.64496231 1162.60573959 C-816.23764171 1098.36094777 -851.37943001 1019.19661791 -871.77386856 939.12917709 C-871.93802261 938.48587448 -872.10217667 937.84257187 -872.27130508 937.17977524 C-881.29076332 901.71507377 -887.47743402 865.77675872 -891.51672745 829.41561508 C-891.76044721 827.24851659 -892.01565369 825.08310499 -892.27435684 822.91775131 C-901.99077723 740.29481799 -893.53997429 653.01611707 -823.77386856 424.12917709 C-823.049496 422.61468979 -823.049496 422.61468979 -822.31048965 421.06960678 C-815.36730297 406.62685118 -807.70615744 392.7210404 -799.47455215 378.97488022 C-797.83834173 376.23705813 -796.21977744 373.48958338 -794.60589981 370.73855209 C-788.791351 360.87002757 -782.69059883 351.29082573 -776.06341934 341.94802475 C-774.84272096 340.22629001 -773.6332813 338.49720096 -772.42621231 336.76589584 C-762.32910434 322.36718679 -751.71551294 308.25619607 -740.20355606 294.95730209 C-737.89311945 292.26798359 -735.67304776 289.52485213 -733.46136856 286.75417709 C-728.18682158 280.2825698 -722.46259783 274.25297596 -716.72552872 268.1941185 C-714.67651938 266.02617742 -712.63646044 263.85008836 -710.59808731 261.67214584 C-709.19844203 260.17856788 -707.79870438 258.68507647 -706.39886856 257.19167709 C-705.43678482 256.16373032 -705.43678482 256.16373032 -704.45526505 255.11501694 C-700.56531733 250.97664655 -696.60184972 246.92878454 -692.55487442 242.94363022 C-690.8543665 241.21118678 -689.27268383 239.42452019 -687.71136856 237.56667709 C-680.14572096 228.78076375 -671.70902825 220.39916542 -662.84808731 212.92214584 C-660.56314421 210.94702554 -658.36055521 208.89752985 -656.15423965 206.83547592 C-650.85635597 201.88676052 -645.47925881 197.12446841 -639.82074356 192.58620834 C-637.51858198 190.72972163 -635.24204515 188.85422085 -632.97699356 186.95339584 C-606.41525603 164.70364915 -577.26182685 144.68080792 -547.16498184 127.49538803 C-545.49755026 126.54266727 -543.83480053 125.58172567 -542.17572403 124.61452866 C-464.64853025 79.42819408 -378.90489487 49.54388415 -91.64886856 2.44167709 C-90.64263443 2.38082932 -89.6364003 2.31998154 -88.59967422 2.25728989 C-59.07664985 0.4978198 -29.56844481 -0.05377753 0 0 Z " fill="#F1AE3B" transform="translate(1238.773868560791,267.87082290649414)"/>
<path d="M0 0 C0.9477832 0.09651855 1.89556641 0.19303711 2.87207031 0.29248047 C25.48391183 2.67411511 48.00092887 7.12774012 69.61523438 14.22021484 C72.08627685 15.02821133 74.56561114 15.80604303 77.046875 16.58203125 C89.74743941 20.61631409 102.00161917 25.52878577 114.23144531 30.80957031 C116.71741793 31.87849469 119.21166919 32.92360678 121.7109375 33.9609375 C139.83047461 41.59582231 156.97377653 51.63359944 173 63 C173.9266748 63.65282959 173.9266748 63.65282959 174.87207031 64.31884766 C183.32733345 70.30386453 191.33546748 76.65811232 199.15869141 83.44580078 C200.5703499 84.63734387 202.00401773 85.80285353 203.44677734 86.95654297 C210.43028377 92.54558124 216.82923786 98.52610906 223.125 104.875 C224.04925781 105.79152344 224.97351562 106.70804688 225.92578125 107.65234375 C232.04972085 113.79355821 237.58569398 120.23211747 243 127 C243.92351523 128.08971204 244.85313748 129.17432817 245.79296875 130.25 C275.17370003 163.99230803 297.29075931 203.85875361 312 246 C312.22190002 246.6345813 312.44380005 247.2691626 312.67242432 247.92297363 C319.67948829 268.02219958 325.52392621 287.95044203 329 309 C329.17499023 310.00724121 329.34998047 311.01448242 329.53027344 312.05224609 C335.35064393 346.98023177 334.0839263 385.18179167 328 420 C327.78569336 421.2375 327.57138672 422.475 327.35058594 423.75 C324.16847453 441.53647426 319.59595494 458.82827011 314 476 C313.6395459 477.11133301 313.2790918 478.22266602 312.90771484 479.36767578 C301.36905126 514.41832491 285.42837297 548.88892718 264 579 C263.4416748 579.78745605 262.88334961 580.57491211 262.30810547 581.38623047 C252.43737969 595.22948948 241.7170554 608.04281745 230.2265625 620.5546875 C228.2980008 622.67272193 226.42280484 624.82229717 224.5625 627 C216.78209881 635.91010816 208.25791866 643.66170227 199 651 C197.90181772 651.90925487 196.80554788 652.82082321 195.7109375 653.734375 C142.51093311 697.78208761 73.02503136 726.44985782 5 736 C4.08105957 736.13277344 3.16211914 736.26554687 2.21533203 736.40234375 C-87.77001961 748.79730803 -185.04640199 720.50668387 -257 666 C-265.1166151 659.7154475 -273.02561515 653.18190955 -280.57421875 646.22241211 C-282.06803382 644.85383335 -283.57194636 643.4960678 -285.09204102 642.15673828 C-292.51125117 635.61454375 -299.51267069 628.67346651 -306.50463867 621.68066406 C-308.55693424 619.63055982 -310.61711915 617.58861249 -312.67773438 615.546875 C-319.91094507 608.34413887 -326.76475278 601.09931055 -333 593 C-333.52190918 592.33299072 -334.04381836 591.66598145 -334.58154297 590.97875977 C-378.06185867 534.96646179 -401.28635231 464.32887637 -406 394 C-406.05494629 393.28279785 -406.10989258 392.5655957 -406.16650391 391.82666016 C-409.08408633 352.81367749 -407.00848983 315.08486633 -398 277 C-397.79648926 276.11763672 -397.59297852 275.23527344 -397.38330078 274.32617188 C-384.80626942 220.29151861 -355.27528425 171.16890814 -320 129 C-319.47631836 128.3719043 -318.95263672 127.74380859 -318.41308594 127.09667969 C-312.85719921 120.45369686 -307.21576975 114.04517665 -301.00390625 108 C-299.1094865 106.10927307 -297.36111341 104.16072637 -295.625 102.125 C-288.74888505 94.13211464 -281.10258474 86.73891443 -273 80 C-272.46310547 79.54931152 -271.92621094 79.09862305 -271.37304688 78.63427734 C-249.01657713 59.91820601 -225.02513278 45.07678938 -199 32 C-198.30841797 31.64953613 -197.61683594 31.29907227 -196.90429688 30.93798828 C-136.83581013 0.73004529 -66.22518821 -6.96705553 0 0 Z " fill="#FDFDFD" transform="translate(2072,2275)"/>
<path d="M0 0 C2.95834386 5.24120964 3.4719876 11.1434445 4.5 17 C4.81904297 18.72476563 4.81904297 18.72476563 5.14453125 20.484375 C8.47048905 39.17503357 9.41005736 57.72501097 9.375 76.6875 C9.37445618 77.80151184 9.37391235 78.91552368 9.37335205 80.06329346 C9.33103272 99.00982713 8.26368712 117.32197326 5 136 C4.78569336 137.2375 4.57138672 138.475 4.35058594 139.75 C0.80193796 159.58523762 -4.50046882 178.93249782 -11 198 C-11.33 198 -11.66 198 -12 198 C-11.27698967 191.76294707 -9.75917118 185.82175121 -8.1875 179.75 C-4.40904257 164.82227342 -1.19908939 149.97787552 1.125 134.75 C1.28371582 133.72865967 1.44243164 132.70731934 1.60595703 131.6550293 C4.58610341 111.3063642 5.40163847 90.9828993 5.375 70.4375 C5.37611786 69.216073 5.37723572 67.994646 5.37838745 66.73620605 C5.36982091 47.70228382 5.17623859 28.39614798 0.4453125 9.82226562 C-0.34739384 6.57842785 -0.05539943 3.32396582 0 0 Z " fill="#DFA643" transform="translate(2395,2559)"/>
<path d="M0 0 C1.81581714 3.2170291 2.55981087 6.18719477 3.21875 9.8125 C3.42798096 10.96089355 3.63721191 12.10928711 3.8527832 13.29248047 C4.06636475 14.51596191 4.27994629 15.73944336 4.5 17 C4.72067139 18.25570801 4.94134277 19.51141602 5.16870117 20.80517578 C7.74765787 35.86397769 9.45575168 50.70699931 9 66 C8.34 66 7.68 66 7 66 C6.93006836 65.16678223 6.86013672 64.33356445 6.78808594 63.47509766 C5.43977655 47.66606168 3.94390361 31.97927212 1.27050781 16.32666016 C0.34050526 10.78924732 -0.19389968 5.61640444 0 0 Z " fill="#C79238" transform="translate(2395,2559)"/>
<path d="M0 0 C1.31212371 3.93637114 0.38269282 5.70360744 -0.87109375 9.63671875 C-1.0722731 10.27615921 -1.27345245 10.91559967 -1.48072815 11.57441711 C-2.12476177 13.6148257 -2.78094233 15.65109096 -3.4375 17.6875 C-3.876457 19.07070803 -4.31461784 20.45416899 -4.75195312 21.83789062 C-5.82541481 25.22824326 -6.9098037 28.61498632 -8 32 C-8.33 32 -8.66 32 -9 32 C-8.23510536 25.40868569 -6.6612071 19.05816669 -5.0625 12.625 C-4.79759766 11.52027344 -4.53269531 10.41554688 -4.25976562 9.27734375 C-4.00001953 8.22933594 -3.74027344 7.18132813 -3.47265625 6.1015625 C-3.12086304 4.66804443 -3.12086304 4.66804443 -2.76196289 3.20556641 C-2 1 -2 1 0 0 Z " fill="#CA9B49" transform="translate(2392,2725)"/>
<path d="M0 0 C0.99 0.33 1.98 0.66 3 1 C3.33 5.62 3.66 10.24 4 15 C3.34 15 2.68 15 2 15 C1.34 10.05 0.68 5.1 0 0 Z " fill="#C8943D" transform="translate(2398,2583)"/>
<path d="M0 0 C1.09898702 3.29696105 0.87124444 4.40494903 0.0625 7.6875 C-0.22947266 8.89986328 -0.22947266 8.89986328 -0.52734375 10.13671875 C-0.68332031 10.75160156 -0.83929687 11.36648437 -1 12 C-3 9 -3 9 -2.75 5.4375 C-2 2 -2 2 0 0 Z " fill="#BE8D39" transform="translate(2397,2703)"/>
<path d="M0 0 C1.18414294 3.55242882 0.69535532 4.69830562 -0.4375 8.1875 C-0.72496094 9.08855469 -1.01242188 9.98960937 -1.30859375 10.91796875 C-1.53675781 11.60503906 -1.76492187 12.29210938 -2 13 C-2.33 13 -2.66 13 -3 13 C-3.15808824 4.9375 -3.15808824 4.9375 -2 1 C-1.34 0.67 -0.68 0.34 0 0 Z " fill="#BF8F3D" transform="translate(2392,2725)"/>
<path d="M0 0 C0.66 0 1.32 0 2 0 C2.25 2.3125 2.25 2.3125 2 5 C0 6.8125 0 6.8125 -2 8 C-1.125 1.125 -1.125 1.125 0 0 Z " fill="#D6A042" transform="translate(2398,2690)"/>
<path d="M0 0 C0.33 0 0.66 0 1 0 C1 2.31 1 4.62 1 7 C0.01 7.33 -0.98 7.66 -2 8 C-1.125 1.125 -1.125 1.125 0 0 Z " fill="#F3B64D" transform="translate(2399,2683)"/>
</svg>
